<?xml version="1.0" encoding="UTF-8"?>
<!DOCTYPE svg PUBLIC "-//W3C//DTD SVG 1.1//EN" "http://www.w3.org/Graphics/SVG/1.1/DTD/svg11.dtd">
<svg xmlns="http://www.w3.org/2000/svg" version="1.1" width="959px" height="584px" style="shape-rendering:geometricPrecision; text-rendering:geometricPrecision; image-rendering:optimizeQuality; fill-rule:evenodd; clip-rule:evenodd" xmlns:xlink="http://www.w3.org/1999/xlink">
<g><path style="opacity:1" fill="#f6f6f6" d="M -0.5,-0.5 C 319.167,-0.5 638.833,-0.5 958.5,-0.5C 958.5,194.167 958.5,388.833 958.5,583.5C 638.833,583.5 319.167,583.5 -0.5,583.5C -0.5,388.833 -0.5,194.167 -0.5,-0.5 Z"/></g>
<g><path style="opacity:1" fill="#ee770c" d="M 431.5,158.5 C 453.522,162.347 473.522,170.847 491.5,184C 474.656,190.52 467.822,202.687 471,220.5C 474,227.833 477,235.167 480,242.5C 482.724,263.204 473.89,276.038 453.5,281C 450.5,281.667 447.5,281.667 444.5,281C 443.751,279.266 443.251,277.433 443,275.5C 438.943,237.82 434.776,200.153 430.5,162.5C 430.623,161.075 430.957,159.742 431.5,158.5 Z"/></g>
<g><path style="opacity:1" fill="#cf182e" d="M 494.5,188.5 C 495.873,188.343 497.207,188.51 498.5,189C 512.915,200.08 525.248,213.08 535.5,228C 565.592,229.809 593.259,238.809 618.5,255C 608.885,260.762 598.552,264.762 587.5,267C 574.865,268.155 562.199,268.821 549.5,269C 543.902,270.931 540.402,274.764 539,280.5C 538.236,291.525 537.236,302.525 536,313.5C 535.241,316.785 533.908,319.785 532,322.5C 527.318,310.302 521.485,298.802 514.5,288C 520.926,268.684 527.426,249.517 534,230.5C 521.167,246 508.333,261.5 495.5,277C 487.833,277.667 480.167,277.667 472.5,277C 483.828,268.7 488.328,257.533 486,243.5C 482.673,234.843 479.34,226.177 476,217.5C 474.403,207.191 477.903,199.024 486.5,193C 489.391,191.726 492.058,190.226 494.5,188.5 Z"/></g>
<g><path style="opacity:1" fill="#ee770d" d="M 623.5,258.5 C 631.683,263.503 639.183,269.503 646,276.5C 647.558,278.769 647.724,281.102 646.5,283.5C 610.735,300.717 574.735,317.383 538.5,333.5C 536.293,333.119 534.96,331.786 534.5,329.5C 538.466,323.773 540.966,317.439 542,310.5C 542.714,301.504 543.381,292.504 544,283.5C 545.068,278.765 547.901,275.598 552.5,274C 577.936,276.282 601.602,271.115 623.5,258.5 Z"/></g>
<g><path style="opacity:1" fill="#cf1a2f" d="M 344.5,307.5 C 358.049,306.406 371.049,308.573 383.5,314C 382.126,319.417 379.459,324.083 375.5,328C 372.845,329.441 370.012,330.274 367,330.5C 360.52,329.48 354.02,329.314 347.5,330C 339.564,335.819 339.564,341.819 347.5,348C 360.074,353.197 371.574,360.03 382,368.5C 392.943,385.12 391.443,400.62 377.5,415C 360.165,425.142 341.832,427.142 322.5,421C 317.66,419.416 313.327,417.083 309.5,414C 312.447,407.272 315.78,400.772 319.5,394.5C 330.45,402.355 342.45,404.521 355.5,401C 362.625,396.124 363.291,390.457 357.5,384C 346.51,378.507 335.843,372.507 325.5,366C 315.284,357.039 311.784,345.873 315,332.5C 320.451,318.874 330.284,310.541 344.5,307.5 Z"/></g>
<g><path style="opacity:1" fill="#e07986" d="M 465.5,310.5 C 475.674,309.177 486.007,309.177 496.5,310.5C 496.376,311.107 496.043,311.44 495.5,311.5C 485.681,310.506 475.681,310.173 465.5,310.5 Z"/></g>
<g><path style="opacity:1" fill="#cf172e" d="M 404.5,310.5 C 412.833,310.5 421.167,310.5 429.5,310.5C 429.167,325.848 429.501,341.181 430.5,356.5C 431.107,356.376 431.44,356.043 431.5,355.5C 442.602,340.282 453.935,325.282 465.5,310.5C 475.681,310.173 485.681,310.506 495.5,311.5C 481.174,328.5 467.174,345.834 453.5,363.5C 468.191,382.519 482.857,401.519 497.5,420.5C 487.347,421.494 477.014,421.828 466.5,421.5C 454.48,406.139 442.813,390.473 431.5,374.5C 431.44,373.957 431.107,373.624 430.5,373.5C 429.501,383.478 429.168,393.478 429.5,403.5C 429.033,414.471 423.366,420.971 412.5,423C 409.854,423.497 407.187,423.664 404.5,423.5C 404.5,385.833 404.5,348.167 404.5,310.5 Z"/></g>
<g><path style="opacity:1" fill="#de6c7a" d="M 404.5,310.5 C 412.984,309.507 421.651,309.174 430.5,309.5C 430.17,325.009 430.504,340.342 431.5,355.5C 431.44,356.043 431.107,356.376 430.5,356.5C 429.501,341.181 429.167,325.848 429.5,310.5C 421.167,310.5 412.833,310.5 404.5,310.5 Z"/></g>
<g><path style="opacity:1" fill="#d64255" d="M 431.5,374.5 C 430.833,384.167 430.167,393.833 429.5,403.5C 429.168,393.478 429.501,383.478 430.5,373.5C 431.107,373.624 431.44,373.957 431.5,374.5 Z"/></g>
<g><path style="opacity:1" fill="#dd6877" d="M 497.5,420.5 C 498.043,420.56 498.376,420.893 498.5,421.5C 487.674,422.823 477.007,422.823 466.5,421.5C 477.014,421.828 487.347,421.494 497.5,420.5 Z"/></g>
</svg>
