<?xml version="1.0" standalone="no"?>
<!DOCTYPE svg PUBLIC "-//W3C//DTD SVG 20010904//EN"
 "http://www.w3.org/TR/2001/REC-SVG-20010904/DTD/svg10.dtd">
<svg version="1.0" xmlns="http://www.w3.org/2000/svg"
 width="959.000000pt" height="584.000000pt" viewBox="0 0 959.000000 584.000000"
 preserveAspectRatio="xMidYMid meet">

<g transform="translate(0.000000,584.000000) scale(0.100000,-0.100000)"
fill="#000000" stroke="none">
<path d="M4924 3931 c-55 -25 -111 -76 -137 -125 -35 -67 -29 -141 21 -256 53
-125 66 -178 60 -253 -7 -77 -42 -150 -97 -200 l-41 -37 114 0 114 0 192 236
c106 129 194 233 196 231 3 -2 -41 -130 -96 -284 -55 -155 -100 -285 -100
-291 0 -5 16 -34 36 -63 42 -63 134 -245 134 -268 1 -9 10 1 21 21 21 40 34
119 48 296 11 130 26 165 85 195 34 18 56 20 165 19 196 -4 326 22 480 95 89
43 94 36 -94 129 -207 101 -421 161 -594 167 -43 1 -78 5 -78 8 3 12 -91 134
-160 209 -79 85 -198 190 -216 190 -6 0 -30 -9 -53 -19z"/>
<path d="M3442 2750 c-124 -26 -220 -100 -267 -203 -24 -51 -27 -68 -23 -140
7 -152 60 -214 278 -327 152 -79 190 -112 190 -164 0 -114 -170 -145 -351 -64
-38 17 -71 29 -73 27 -11 -14 -96 -178 -96 -187 0 -14 131 -67 205 -83 96 -20
268 -15 339 10 166 59 249 166 250 321 0 154 -72 242 -289 351 -176 89 -219
143 -164 212 30 39 87 51 175 38 73 -11 121 -4 152 21 8 7 28 40 43 73 33 69
36 65 -71 94 -85 24 -235 34 -298 21z"/>
<path d="M4050 2165 c0 -643 -11 -576 91 -554 40 9 62 22 99 58 60 58 70 100
70 293 l0 141 177 -242 177 -241 163 0 162 0 -224 285 c-124 157 -225 289
-225 294 0 5 91 121 203 258 112 137 206 254 211 261 5 9 -28 12 -146 12
l-153 0 -169 -225 c-93 -124 -173 -225 -177 -225 -5 0 -9 101 -9 225 l0 225
-125 0 -125 0 0 -565z"/>
</g>
</svg>
